{"title":"RIPD.2013.1080p.x264.Pjones","uid":8861287,"size":3573178566,"categoryP":"video","categoryS":"hd___movies","magnet":"?xt=urn:btih:524dd0599acb2543ddb19e92a1abe86b6feb7d13&amp;dn=RIPD.2013.1080p.x264.Pjones&amp;tr=udp%3A%2F%2Ftracker.openbittorrent.com%3A80&amp;tr=udp%3A%2F%2Fopen.demonii.com%3A1337&amp;tr=udp%3A%2F%2Ftracker.coppersurfer.tk%3A6969&amp;tr=udp%3A%2F%2Fexodus.desync.com%3A6969","seeders":5,"leechers":0,"uploader":"pjones452","files":5,"time":1377781713,"description":"General\nComplete name: R.I.P.D 2013 WEBrip 1080p x264 Ac3-RipNRun.mkv\nFormat: Matroska\nFormat version: Version 4 / Version 2\nFile size: 3.31 GiB\nDuration: 1h 35mn\nOverall bit rate: 4 941 Kbps\nEncoded date: UTC 2013-08-28 22:46:06\nWriting application: mkvmerge v6.3.0 ('You can't stop me!') built on Jun 28 2013 20:09:41\nWriting library: libebml v1.3.0 + libmatroska v1.4.0\n\nVideo\nID: 1\nFormat: AVC\nFormat/Info: Advanced Video Codec\nFormat profile: &lt;a class=&quot;__cf_email__&quot; href=&quot;/cdn-cgi/l/email-protection&quot; data-cfemail=&quot;d29abbb5ba929ee6fce2&quot;&gt;[email&amp;#160;protected]&lt;/a&gt;&lt;script cf-hash='f9e31' type=&quot;text/javascript&quot;&gt;\n/* &lt;![CDATA[ */!function(){try{var t=&quot;currentScript&quot;in document?document.currentScript:function(){for(var t=document.getElementsByTagName(&quot;script&quot;),e=t.length;e--;)if(t[e].getAttribute(&quot;cf-hash&quot;))return t[e]}();if(t&amp;&amp;t.previousSibling){var e,r,n,i,c=t.previousSibling,a=c.getAttribute(&quot;data-cfemail&quot;);if(a){for(e=&quot;&quot;,r=parseInt(a.substr(0,2),16),n=2;a.length-n;n+=2)i=parseInt(a.substr(n,2),16)^r,e+=String.fromCharCode(i);e=document.createTextNode(e),c.parentNode.replaceChild(e,c)}}}catch(u){}}();/* ]]&gt; */&lt;/script&gt;\nFormat settings, CABAC: Yes\nFormat settings, ReFrames: 5 frames\nCodec ID: V_MPEG4/ISO/AVC\nDuration: 1h 35mn\nBit rate: 4 459 Kbps\nWidth: 1 916 pixels\nHeight: 812 pixels\nDisplay aspect ratio: 2.35:1\nFrame rate: 23.976 fps\nColor space: YUV\nChroma subsampling: 4:2:0\nBit depth: 8 bits\nScan type: Progressive\nBits/(Pixel*Frame): 0.120\nStream size: 2.99 GiB (90%)\nLanguage: English\nDefault: Yes\nForced: No\nColor primaries: BT.709-5, BT.1361, IEC 61966-2-4, SMPTE RP177\nTransfer characteristics: BT.709-5, BT.1361\nMatrix coefficients: BT.709-5, BT.1361, IEC 61966-2-4 709, SMPTE RP177\n\nAudio\nID: 2\nFormat: AC-3\nFormat/Info: Audio Coding 3\nMode extension: CM (complete main)\nCodec ID: A_AC3\nDuration: 1h 35mn\nBit rate mode: Constant\nBit rate: 384 Kbps\nChannel(s): 2 channels\nChannel positions: Front: L R\nSampling rate: 48.0 KHz\nBit depth: 16 bits\nCompression mode: Lossy\nStream size: 263 MiB (8%)\nDefault: Yes\nForced: No\nsource vid: russian webdl\nsource audio: Bida\n\nthanks\n\nIMDB link: http://www.imdb.com/title/tt0790736/\n\n","torrent":{"xt":"urn:btih:524dd0599acb2543ddb19e92a1abe86b6feb7d13","amp;dn":"RIPD.2013.1080p.x264.Pjones","amp;tr":["udp%3A%2F%2Ftracker.openbittorrent.com%3A80","udp%3A%2F%2Fopen.demonii.com%3A1337","udp%3A%2F%2Ftracker.coppersurfer.tk%3A6969","udp%3A%2F%2Fexodus.desync.com%3A6969"],"infoHash":"524dd0599acb2543ddb19e92a1abe86b6feb7d13","infoHashBuffer":{"type":"Buffer","data":[82,77,208,89,154,203,37,67,221,177,158,146,161,171,232,107,111,235,125,19]},"announce":[],"urlList":[]}}